<svg width="34" height="33" viewBox="0 0 34 33" fill="none" xmlns="http://www.w3.org/2000/svg">
<path d="M22.125 1.5C20.525 1.9 18.125 4 17.125 5C16.725 4.2 14.625 2.66667 13.625 2C13.125 1.66667 11.725 1 10.125 1C8.125 1 6.625 1.5 5.625 2C4.625 2.5 2.625 3.5 1.625 6C0.625 8.5 1.125 9 1.125 11C1.125 13 2.125 14.5 3.125 16C4.125 17.5 7.125 20.5 8.125 21.5C9.125 22.5 13.125 25.5 14.125 27L17.125 31.5C16.9583 32 16.825 32.5 17.625 30.5C18.425 28.5 23.2916 23.6667 25.625 21.5C27.2916 20 30.725 16.8 31.125 16C31.625 15 33.125 12.5 33.125 11C33.125 9.5 33.125 8.5 32.625 7C32.225 5.8 31.125 4.16667 30.625 3.5C30.125 3 28.725 1.9 27.125 1.5C25.125 1 24.125 1 22.125 1.5Z" stroke="#AAA7B5"/>
</svg>
