<svg width="42" height="58" viewBox="0 0 42 58" fill="none" xmlns="http://www.w3.org/2000/svg">
<path d="M25.8498 7.25003C25.8498 6.3987 25.6669 5.55711 25.3133 4.78118C24.9597 4.00526 24.4435 3.31277 23.799 2.74971C23.1544 2.18666 22.3963 1.76594 21.575 1.51551C20.7537 1.26507 19.888 1.19066 19.0355 1.29721C18.1829 1.40376 17.363 1.68884 16.6302 2.1335C15.8974 2.57816 15.2685 3.17223 14.7853 3.87622C14.3021 4.58022 13.9756 5.37803 13.8276 6.21664C13.6796 7.05525 13.7134 7.91546 13.9269 8.74013L16.6595 8.04604C16.5455 7.6055 16.5275 7.14598 16.6065 6.69799C16.6856 6.25001 16.86 5.82382 17.1181 5.44775C17.3762 5.07168 17.7122 4.75433 18.1036 4.51679C18.4951 4.27926 18.9331 4.12697 19.3885 4.07005C19.844 4.01313 20.3064 4.05288 20.7452 4.18666C21.1839 4.32044 21.5889 4.54519 21.9332 4.84597C22.2775 5.14675 22.5533 5.51668 22.7422 5.93118C22.931 6.34568 23.0287 6.79525 23.0287 7.25003H25.8498Z" fill="#B791BA"/>
<path d="M42 6C42 4.44779 41.4873 2.95597 40.5695 1.83794C39.6517 0.719899 38.4003 0.0626483 37.0782 0.00424815C35.7561 -0.054152 34.4661 0.490843 33.4793 1.52475C32.4924 2.55866 31.8855 4.00102 31.786 5.54883L34.2165 5.76385C34.2686 4.9537 34.5862 4.19875 35.1028 3.65759C35.6193 3.11643 36.2945 2.83117 36.9865 2.86173C37.6785 2.8923 38.3335 3.23632 38.8139 3.82151C39.2943 4.40671 39.5627 5.18755 39.5627 6H42Z" fill="#B791BA"/>
<path d="M3.24063 32.9498C3.99423 33.9058 4.94992 34.5645 5.99225 34.8463C7.03458 35.1281 8.11894 35.0209 9.11431 34.5378C10.1097 34.0547 10.9735 33.2162 11.6013 32.1238C12.2291 31.0313 12.5941 29.7316 12.6522 28.3816C12.7103 27.0316 12.459 25.6892 11.9287 24.5165C11.3983 23.3439 10.6116 22.3911 9.66359 21.7734C8.71559 21.1557 7.64687 20.8994 6.58655 21.0356C5.52623 21.1718 4.51969 21.6946 3.68855 22.5409L5.07137 24.7265C5.56975 24.2191 6.17331 23.9056 6.80911 23.8239C7.44492 23.7423 8.08576 23.8959 8.65421 24.2663C9.22266 24.6367 9.6944 25.208 10.0124 25.9112C10.3304 26.6144 10.4811 27.4193 10.4463 28.2288C10.4115 29.0383 10.1926 29.8177 9.81613 30.4728C9.43966 31.1278 8.9217 31.6306 8.32484 31.9203C7.72799 32.21 7.07777 32.2743 6.45275 32.1053C5.82773 31.9363 5.25466 31.5413 4.80279 30.9681L3.24063 32.9498Z" fill="#B791BA"/>
<path d="M3.76684 46.8597C4.70379 49.8028 6.84776 52.453 9.89842 54.4389C12.9491 56.4249 16.7536 57.6471 20.7791 57.9345C24.8046 58.2218 28.8494 57.5598 32.347 56.0413C35.8445 54.5228 38.6195 52.2237 40.2834 49.4662C41.9473 46.7087 42.4166 43.6309 41.6256 40.6638C40.8347 37.6968 38.8231 34.9892 35.8726 32.9202C32.9221 30.8513 29.1805 29.5247 25.1719 29.1263C21.1634 28.7279 17.0886 29.2775 13.5185 30.6983L14.846 32.5656C17.8954 31.352 21.3758 30.8825 24.7997 31.2229C28.2235 31.5632 31.4193 32.6963 33.9395 34.4634C36.4596 36.2306 38.1778 38.5432 38.8534 41.0775C39.529 43.6118 39.1281 46.2407 37.707 48.596C36.2858 50.9513 33.9155 52.915 30.9281 54.212C27.9407 55.5091 24.4859 56.0745 21.0476 55.829C17.6093 55.5836 14.3597 54.5396 11.754 52.8434C9.14828 51.1471 7.31703 48.8835 6.51674 46.3696L3.76684 46.8597Z" fill="#B791BA"/>
<path d="M14.2849 30.4749C12.9578 31.073 11.9497 31.9936 11.4315 33.0807C10.9133 34.1678 10.9168 35.3546 11.4415 36.44C11.9661 37.5254 12.9796 38.4427 14.3102 39.0364C15.6408 39.6302 17.1109 39.9292 18.9512 39.8136V37.3559C18.0735 37.4507 16.5554 37.5386 15.795 37.1993C15.0347 36.86 14.4556 36.3359 14.1558 35.7157C13.856 35.0955 13.854 34.4173 14.1501 33.7961C14.4462 33.175 15.0222 32.6489 15.7806 32.3072L14.2849 30.4749Z" fill="#B791BA"/>
<path d="M22.5682 29C23.1805 28.1034 22.2272 29.7799 22.468 28.6611C22.7088 27.5423 22.743 26.3748 22.5682 25.2388C22.3935 24.1028 22.0139 23.0252 21.4556 22.0801C20.8973 21.1351 20.1735 20.3449 19.3339 19.7639C18.4944 19.183 17.559 18.825 16.592 18.7146C15.6251 18.6042 14.6495 18.744 13.7323 19.1244C12.815 19.5048 11.978 20.1168 11.2786 20.9182C10.5792 21.7197 10.0341 22.6917 9.68066 23.7674L12.1513 24.9147C12.3654 24.263 12.6957 23.6741 13.1194 23.1885C13.5431 22.703 14.0502 22.3322 14.6059 22.1018C15.1616 21.8713 15.7527 21.7866 16.3385 21.8535C16.9243 21.9204 17.491 22.1372 17.9996 22.4892C18.5083 22.8412 18.9468 23.3199 19.285 23.8924C19.6232 24.465 19.8532 25.1178 19.9591 25.8061C20.065 26.4943 20.0442 27.2016 19.8984 27.8794C19.7525 28.5573 18.8099 28.9483 18.439 29.4915L22.5682 29Z" fill="#B791BA"/>
<path d="M32.579 42.375C32.579 41.3119 31.9949 40.2727 30.9006 39.3888C29.8062 38.5049 28.2508 37.8159 26.431 37.4091C24.6111 37.0023 22.6086 36.8959 20.6767 37.1033C18.439 37.3559 18.1898 37.5597 17.9268 37.8474L18.439 39.8136C19.9756 39.8136 20.1746 39.1794 21.3937 39.0485C22.6127 38.9177 23.8763 38.9848 25.0246 39.2415C26.1729 39.4982 27.1544 39.9329 27.8449 40.4907C28.5354 41.0484 28.904 41.7042 28.904 42.375H32.579Z" fill="#B791BA"/>
<path d="M5.79578 21.4088C4.06121 22 2.30763 23.3062 1.17791 25.5C0.0481952 27.6938 0.164936 30.7697 0.023663 33.6375C-0.11761 36.5052 0.387165 37.911 1.17791 41C2.10936 43.25 2.88666 44.75 3.79204 47L6.46951 46.5C5.63415 44.7288 4.09756 42.2712 3.23946 40.25C2.52105 38.2825 1.99661 35.9261 2.10936 33.6375C2.2221 31.3488 1.83624 29.4008 2.73783 27.65C3.63942 25.8992 4.85158 24.6586 6.2036 24.1029L5.79578 21.4088Z" fill="#B791BA"/>
<path d="M14.0063 8.62497L16.5634 7.74997L18.8514 19L15.8905 18.375L14.0063 8.62497Z" fill="#B791BA"/>
<path d="M39.5774 5.99997H42L37.4241 34.625L34.4632 32.25L39.5774 5.99997Z" fill="#B791BA"/>
<path d="M23.1581 7.25H25.8498L29.4836 22.125L27.0611 22.875L23.1581 7.25Z" fill="#B791BA"/>
<path d="M31.7715 5.5H34.1941L29.4836 22.5L26.7919 20.375L31.7715 5.5Z" fill="#B791BA"/>
<ellipse cx="28.2723" cy="22.25" rx="1.34585" ry="1.25" fill="#B791BA"/>
</svg>
