<svg width="57" height="73" viewBox="0 0 57 73" fill="none" xmlns="http://www.w3.org/2000/svg">
<path fill-rule="evenodd" clip-rule="evenodd" d="M23.4302 4.17349C20.6947 4.81887 18.5465 7.91671 18.6324 11.1006C18.6611 12.2766 18.8043 12.922 20.3224 18.6014C21.0384 21.2977 21.6256 23.5493 21.6256 23.5924C21.6256 23.6354 21.2819 23.6641 20.8666 23.6641C19.8354 23.6641 18.5751 24.0083 17.544 24.5963C16.6274 25.0982 15.3241 26.3747 14.7656 27.2926C14.5794 27.5937 14.3646 27.8089 14.2643 27.7658C12.6603 27.0487 12.1591 26.9053 10.999 26.848C8.95101 26.7476 7.10352 27.4647 5.6284 28.9562C4.88367 29.702 4.38242 30.5768 3.89548 31.9823C3.52312 33.0436 3.52312 33.1297 3.52312 37.002C3.5088 41.0034 3.56609 41.7922 4.16759 45.1051C4.92664 49.2356 6.30151 53.1079 8.13468 56.2057C10.0538 59.4757 12.7749 61.8994 16.4985 63.6778C20.2364 65.4562 24.1606 66.2307 28.7148 66.0729C33.7847 65.9008 38.339 64.4953 42.0769 61.9281C44.4543 60.2931 47.0465 57.224 47.8342 55.1014C48.4786 53.4091 48.7078 52.2043 48.7078 50.4546C48.7078 46.7975 47.5477 44.0725 44.7264 41.1468C43.9101 40.3006 43.595 39.8703 43.6952 39.77C43.7812 39.6839 45.156 33.3735 46.7744 25.7293C49.5957 12.3197 49.696 11.789 49.6387 10.5413C49.4812 7.44343 48.0204 5.2061 45.6716 4.44599C43.6236 3.78626 41.6902 4.37428 39.8714 6.22438C38.253 7.88803 37.8377 8.86327 35.9902 15.5896C35.1452 18.6874 34.4148 21.2259 34.3719 21.2259C34.3289 21.2259 33.7274 18.8022 33.0256 15.8334C31.3214 8.61945 30.906 7.55815 29.1158 5.88016C27.4689 4.33125 25.4065 3.71455 23.4302 4.17349ZM25.8362 7.30001C26.4377 7.52948 27.2397 8.21789 27.6837 8.84893C28.4857 10.025 29.345 13.0511 31.9372 23.9509C32.4098 25.9588 32.8824 27.7658 32.9683 27.9379C33.3837 28.7411 34.5437 28.9132 35.2312 28.2821C35.6322 27.9236 35.8327 27.2782 37.8807 19.9352C41.1173 8.27526 40.8166 9.16445 41.8907 8.08882C43.996 5.99491 46.4307 7.08489 46.7744 10.2975C46.8317 10.7994 46.5739 12.2623 45.7862 16.0629C45.199 18.8595 43.9244 24.9261 42.9505 29.5442C41.991 34.1623 41.1603 37.9772 41.1173 38.0346C41.0601 38.092 40.4729 37.8481 39.7998 37.5039C36.6204 35.8546 32.195 34.7216 28.8724 34.7073H27.8985L27.9987 34.234C28.2995 32.8859 28.3425 32.5417 28.3568 31.6094C28.3568 30.3904 27.9415 28.655 27.3972 27.6368C27.1681 27.2208 26.5379 26.4034 25.9794 25.8153L24.9626 24.7397L24.2178 21.7996C23.8025 20.179 23.2153 17.9273 22.9146 16.78C22.0553 13.5674 21.8548 12.5204 21.8548 11.0432C21.8405 9.82418 21.8834 9.59471 22.2415 8.84893C23.0005 7.3287 24.3611 6.74068 25.8362 7.30001ZM22.7427 26.8049C24.7334 27.8232 25.8075 30.376 25.292 32.8285C24.9912 34.2914 24.6905 34.7503 23.9744 34.8794C21.5683 35.324 21.0098 35.4817 20.0932 35.9263C18.7613 36.5861 17.6442 37.6187 17.0284 38.7517C16.5844 39.5835 16.5415 39.7556 16.5415 40.946C16.5415 42.122 16.5844 42.3228 17.0141 43.1977C17.544 44.2733 18.5608 45.2916 19.7209 45.937C21.3822 46.8405 24.1033 47.156 25.7503 46.654C26.896 46.2955 30.0467 46.3098 31.4359 46.6684C33.842 47.2851 35.7467 48.6045 36.3912 50.1104C36.7779 50.9853 37.2219 51.2865 37.9236 51.1287C38.5824 50.9853 39.0264 50.426 39.0264 49.7232C39.0264 48.4324 37.0357 46.2094 34.8015 44.9904C33.0256 44.0151 31.8226 43.714 29.5741 43.6566C28.4857 43.6279 27.297 43.6709 26.939 43.757C25.9364 43.9865 23.9601 44.0438 22.9289 43.8717C20.5515 43.4988 19.0764 42.0503 19.4917 40.5157C19.6779 39.8704 20.3653 39.0672 21.0528 38.723C23.2726 37.59 28.7578 37.3318 32.8681 38.1637C39.4417 39.4975 44.5259 43.4702 45.7575 48.2603C46.0297 49.3503 46.0297 51.4155 45.7575 52.5199C44.5116 57.31 39.3987 61.3401 32.8538 62.6595C25.5068 64.1511 17.6872 62.2867 13.1329 57.9411C11.0849 56.0049 8.8794 51.9175 7.84825 48.1886C6.81709 44.4167 6.37312 41.0751 6.38744 37.2171C6.40176 34.5208 6.41609 34.277 6.77413 33.144C7.23242 31.7098 7.70503 30.8637 8.33518 30.333C9.89624 29.0136 11.5862 29.0853 13.047 30.5482C14.0781 31.5664 14.4648 32.5417 14.4648 34.1049C14.4648 36.2562 13.1902 38.0776 11.3427 38.5796C10.8701 38.6943 10.6553 38.6943 10.2256 38.5079C9.02262 38.0059 8.16332 38.4505 8.16332 39.5692C8.16332 40.7022 8.93669 41.1898 10.7269 41.1755C12.7749 41.1755 14.2786 40.5014 15.7395 38.9381C17.0714 37.5039 17.6156 36.0554 17.6156 33.9185C17.6156 32.9002 17.5297 32.4126 17.2432 31.6238C16.7133 30.1609 16.699 29.9458 17.0141 29.2C17.5869 27.9379 18.5035 27.0487 19.7209 26.5898C20.4799 26.303 21.9694 26.4034 22.7427 26.8049Z" fill="#AAA7B5"/>
</svg>
