<svg width="25" height="27" viewBox="0 0 25 27" fill="none" xmlns="http://www.w3.org/2000/svg">
<g clip-path="url(#clip0_428_186)">
<path d="M2.0835 3.01855H22.9165C23.4689 3.01925 23.9985 3.25655 24.389 3.67839C24.7796 4.10023 24.9994 4.67216 25 5.26873V23.3972L23.2041 21.4577L22.7974 21.0184H2.0835C1.5312 21.0177 1.00171 20.7805 0.611128 20.3587C0.220551 19.937 0.000774384 19.3652 0 18.7687V5.26873C0.000646591 4.67216 0.220364 4.10023 0.610954 3.67839C1.00155 3.25655 1.53112 3.01925 2.0835 3.01855ZM8.3335 15.7676H16.6665C16.8507 15.7676 17.0273 15.6886 17.1575 15.548C17.2877 15.4074 17.3608 15.2166 17.3608 15.0177C17.3608 14.8189 17.2877 14.6281 17.1575 14.4875C17.0273 14.3469 16.8507 14.2679 16.6665 14.2679H8.3335C8.14935 14.2679 7.97274 14.3469 7.84253 14.4875C7.71231 14.6281 7.63916 14.8189 7.63916 15.0177C7.63916 15.2166 7.71231 15.4074 7.84253 15.548C7.97274 15.6886 8.14935 15.7676 8.3335 15.7676ZM8.3335 12.7676H16.6665C16.8507 12.7676 17.0273 12.6886 17.1575 12.5479C17.2877 12.4073 17.3608 12.2166 17.3608 12.0177C17.3608 11.8188 17.2877 11.6281 17.1575 11.4874C17.0273 11.3468 16.8507 11.2678 16.6665 11.2678H8.3335C8.14935 11.2678 7.97274 11.3468 7.84253 11.4874C7.71231 11.6281 7.63916 11.8188 7.63916 12.0177C7.63916 12.2166 7.71231 12.4073 7.84253 12.5479C7.97274 12.6886 8.14935 12.7676 8.3335 12.7676ZM8.3335 9.7675H16.6665C16.8507 9.7675 17.0273 9.68849 17.1575 9.54786C17.2877 9.40723 17.3608 9.2165 17.3608 9.01762C17.3608 8.81874 17.2877 8.628 17.1575 8.48737C17.0273 8.34674 16.8507 8.26773 16.6665 8.26773H8.3335C8.14935 8.26773 7.97274 8.34674 7.84253 8.48737C7.71231 8.628 7.63916 8.81874 7.63916 9.01762C7.63916 9.2165 7.71231 9.40723 7.84253 9.54786C7.97274 9.68849 8.14935 9.7675 8.3335 9.7675Z" fill="#AAA7B5"/>
</g>
<defs>
<clipPath id="clip0_428_186">
<rect width="25" height="27" fill="white" transform="matrix(-1 0 0 1 25 0)"/>
</clipPath>
</defs>
</svg>
